<svg width="20" height="20" viewBox="0 0 48 48" xmlns="http://www.w3.org/2000/svg">
  <path fill="#EA4335" d="M24 9.5c3.54 0 6 1.54 7.38 2.83l5.4-5.26C33.64 3.47 29.27 1.5 24 1.5 14.86 1.5 6.9 6.98 3.44 15l6.9 5.36C11.75 14.28 17.27 9.5 24 9.5z"/>
  <path fill="#4285F4" d="M46.5 24.5c0-1.64-.15-3.21-.44-4.73H24v9.26h12.7c-.55 2.94-2.23 5.43-4.72 7.1l7.6 5.9C43.73 39.1 46.5 32.5 46.5 24.5z"/>
  <path fill="#FBBC05" d="M10.34 28.64A14.29 14.29 0 0 1 9.5 24c0-1.61.28-3.17.79-4.63l-6.9-5.36A22.385 22.385 0 0 0 1.5 24c0 3.54.85 6.9 2.39 9.9l6.45-5.26z"/>
  <path fill="#34A853" d="M24 46.5c6.27 0 11.56-2.07 15.42-5.62l-7.6-5.9c-2.12 1.43-4.84 2.27-7.82 2.27-6.73 0-12.43-4.53-14.45-10.83l-6.9 5.36C9.5 41.02 16.46 46.5 24 46.5z"/>
  <path fill="none" d="M0 0h48v48H0z"/>
</svg>
